<svg width="199" height="168" viewBox="0 0 199 168" fill="none" xmlns="http://www.w3.org/2000/svg">
<path d="M99.425 167.433C145.503 167.433 182.858 130.079 182.858 84.0001C182.858 37.9216 145.503 0.567383 99.425 0.567383C53.3464 0.567383 15.9922 37.9216 15.9922 84.0001C15.9922 130.079 53.3464 167.433 99.425 167.433Z" fill="url(#paint0_linear_182_2166)"/>
<path d="M68.1361 24.5918H132.475C138.619 24.5918 143.599 29.572 143.599 35.7162V121.255C143.599 127.399 138.619 132.379 132.475 132.379H68.1361C61.992 132.379 57.0117 127.399 57.0117 121.255V35.7162C57.0117 29.572 61.992 24.5918 68.1361 24.5918Z" fill="url(#paint1_linear_182_2166)"/>
<path d="M68.067 38.498H96.017C97.8984 38.498 99.4238 40.0235 99.4238 41.9049C99.4238 43.7863 97.8984 45.3117 96.017 45.3117H68.067C66.1856 45.3117 64.6602 43.7863 64.6602 41.9049C64.6602 40.0235 66.1856 38.498 68.067 38.498Z" fill="#D5D5D5"/>
<path d="M68.067 57.8271H130.781C132.662 57.8271 134.187 59.3526 134.187 61.234C134.187 63.1154 132.662 64.6408 130.781 64.6408H68.067C66.1856 64.6408 64.6602 63.1154 64.6602 61.234C64.6602 59.3526 66.1856 57.8271 68.067 57.8271Z" fill="#D5D5D5"/>
<path d="M68.067 77.1562H130.781C132.662 77.1562 134.187 78.6817 134.187 80.5631C134.187 82.4445 132.662 83.9699 130.781 83.9699H68.067C66.1856 83.9699 64.6602 82.4445 64.6602 80.5631C64.6602 78.6817 66.1856 77.1562 68.067 77.1562Z" fill="#D5D5D5"/>
<path d="M68.067 96.4846H130.781C132.662 96.4846 134.187 98.0101 134.187 99.8915C134.187 101.773 132.662 103.298 130.781 103.298H68.067C66.1856 103.298 64.6602 101.773 64.6602 99.8915C64.6602 98.0101 66.1856 96.4846 68.067 96.4846Z" fill="#D5D5D5"/>
<path d="M68.067 115.813H130.781C132.662 115.813 134.187 117.338 134.187 119.22C134.187 121.101 132.662 122.627 130.781 122.627H68.067C66.1856 122.627 64.6602 121.101 64.6602 119.22C64.6602 117.338 66.1856 115.813 68.067 115.813Z" fill="#D5D5D5"/>
<path d="M195.477 12.6816H153.704C151.758 12.6816 150.18 14.342 150.18 16.3909V37.0537C150.18 39.102 151.758 40.763 153.704 40.763H195.477C197.423 40.763 199.001 39.102 199.001 37.0537V16.3909C199.001 14.342 197.423 12.6816 195.477 12.6816Z" fill="white"/>
<path d="M160.609 31.1592C162.913 31.1592 164.781 29.2917 164.781 26.9876C164.781 24.6834 162.913 22.8159 160.609 22.8159C158.305 22.8159 156.438 24.6834 156.438 26.9876C156.438 29.2917 158.305 31.1592 160.609 31.1592Z" fill="#CCC6D9"/>
<path d="M174.511 22.8159H188.417C190.721 22.8159 192.589 24.6834 192.589 26.9876C192.589 29.2917 190.721 31.1592 188.417 31.1592H174.511C172.207 31.1592 170.34 29.2917 170.34 26.9876C170.34 24.6834 172.207 22.8159 174.511 22.8159Z" fill="#D5D5D5"/>
<path fill-rule="evenodd" clip-rule="evenodd" d="M123.833 137.233C132.788 137.233 141.11 134.524 148.025 129.881L176.322 156.894L186.585 144.987L159.28 118.921C164.323 111.824 167.288 103.148 167.288 93.778C167.288 69.7793 147.832 50.3235 123.833 50.3235C99.834 50.3235 80.3789 69.7793 80.3789 93.778C80.3789 117.777 99.834 137.233 123.833 137.233ZM160.898 93.778C160.898 114.097 144.426 130.568 124.108 130.568C103.79 130.568 87.3191 114.097 87.3191 93.778C87.3191 73.4601 103.79 56.9891 124.108 56.9891C144.426 56.9891 160.898 73.4601 160.898 93.778Z" fill="#CCC6D9"/>
<path d="M124.107 131.278C145.035 131.278 162 114.469 162 93.7335C162 72.9983 145.035 56.1887 124.107 56.1887C103.18 56.1887 86.2148 72.9983 86.2148 93.7335C86.2148 114.469 103.18 131.278 124.107 131.278Z" fill="white" fill-opacity="0.3"/>
<path d="M176.32 156.895L186.583 144.987L188.129 146.463C189.629 147.895 190.526 149.895 190.625 152.023C190.724 154.152 190.014 156.234 188.654 157.812C187.294 159.391 185.394 160.335 183.371 160.439C181.349 160.543 179.37 159.797 177.87 158.365L176.324 156.89L176.32 156.895Z" fill="#E1DCEB"/>
<path fill-rule="evenodd" clip-rule="evenodd" d="M34.2863 43.7942C34.2738 42.8027 34.1494 41.8022 33.9005 40.7955C33.0279 37.2621 29.1358 34.9934 24.9933 34.4601C20.853 33.9269 16.5465 35.1408 14.8868 38.2146C13.9378 39.9716 13.8071 41.4859 14.195 42.7631C14.5809 44.0334 15.4973 45.086 16.7411 45.9071C20.2092 48.1925 26.2831 48.659 29.0544 47.7037C30.3358 47.2608 31.588 46.7275 32.8068 46.1171C32.1101 50.1121 29.5126 53.8965 26.046 57.3068C18.512 64.7191 6.82167 70.3453 0.455054 72.4137C0.11298 72.525 -0.0768291 72.9039 0.0295476 73.2612C0.135924 73.6186 0.499552 73.8189 0.841626 73.7076C7.33409 71.5982 19.2525 65.8524 26.9352 58.2934C30.9045 54.3895 33.7322 49.9939 34.2154 45.3731C43.1879 40.3665 50.5557 31.2827 56.8556 23.6375C57.0899 23.3559 57.0586 22.927 56.7868 22.6822C56.5149 22.4396 56.1061 22.4702 55.8718 22.7538C49.8285 30.0862 42.8153 38.8077 34.2863 43.7942ZM32.982 44.5207C33.0314 43.4062 32.9264 42.2743 32.6434 41.1327C31.889 38.0742 28.421 36.2658 24.8348 35.8041C22.637 35.5218 20.3767 35.7547 18.6038 36.5821C17.4892 37.1015 16.5715 37.8552 16.018 38.8807C15.2915 40.226 15.1344 41.3767 15.4319 42.3529C15.7302 43.336 16.47 44.1258 17.4336 44.7599C20.5943 46.8437 26.1245 47.2865 28.647 46.4161C30.1342 45.9036 31.5783 45.264 32.982 44.5207Z" fill="#948888"/>
<path d="M193.285 112.506C195.589 112.506 197.457 110.639 197.457 108.335C197.457 106.031 195.589 104.163 193.285 104.163C190.981 104.163 189.113 106.031 189.113 108.335C189.113 110.639 190.981 112.506 193.285 112.506Z" fill="#E3E3E3"/>
<path fill-rule="evenodd" clip-rule="evenodd" d="M35.726 137.115C36.4706 136.836 37.2542 136.465 37.8584 135.927C38.5759 135.29 38.8679 134.468 39.0633 133.603C39.315 132.491 39.4158 131.308 39.721 130.195C39.8336 129.781 40.0513 129.625 40.1444 129.556C40.3801 129.381 40.6186 129.333 40.8425 129.351C41.1081 129.372 41.4731 129.477 41.7137 129.946C41.7477 130.013 41.7922 130.116 41.8221 130.255C41.8437 130.358 41.8583 130.679 41.8812 130.812C41.9389 131.138 41.9869 131.464 42.0328 131.791C42.1837 132.882 42.2706 133.809 42.7475 134.811C43.3948 136.172 44.0435 137.004 44.923 137.374C45.774 137.73 46.7905 137.663 48.09 137.383C48.2138 137.352 48.3361 137.325 48.4571 137.303C49.03 137.198 49.5779 137.593 49.6905 138.194C49.8031 138.794 49.4388 139.379 48.8708 139.511C48.7526 139.539 48.6358 139.564 48.5204 139.589C46.7641 140.046 44.7311 141.679 43.5499 143.108C43.1862 143.549 42.653 144.782 42.1093 145.567C41.7081 146.148 41.2569 146.53 40.8779 146.665C40.6242 146.756 40.4107 146.742 40.2341 146.696C39.9769 146.63 39.7641 146.483 39.6007 146.25C39.5117 146.123 39.429 145.953 39.3894 145.734C39.3706 145.629 39.3685 145.363 39.3692 145.242C39.2579 144.841 39.1224 144.449 39.0236 144.045C38.7879 143.078 38.3256 142.467 37.7763 141.659C37.2625 140.903 36.7105 140.428 35.9012 140.049C35.7962 140.022 34.9466 139.803 34.6469 139.678C34.2089 139.493 33.9996 139.185 33.9238 139.019C33.7952 138.737 33.782 138.491 33.8077 138.285C33.8459 137.982 33.9753 137.723 34.2047 137.513C34.3465 137.383 34.5586 137.257 34.843 137.195C35.062 137.147 35.6446 137.119 35.726 137.115ZM40.709 135.541C40.7479 135.633 40.7903 135.726 40.8348 135.82C41.7825 137.812 42.8428 138.925 44.1318 139.465L44.1749 139.482C43.3128 140.156 42.532 140.909 41.9361 141.631C41.69 141.928 41.3653 142.546 41.0135 143.178C40.6944 142.087 40.1729 141.315 39.5166 140.349C39.0146 139.612 38.4897 139.057 37.8438 138.605C38.345 138.334 38.8227 138.017 39.2392 137.648C39.9324 137.031 40.3905 136.317 40.709 135.541Z" fill="#CCC6D9"/>
<defs>
<linearGradient id="paint0_linear_182_2166" x1="98.7799" y1="-26.6003" x2="100.489" y2="266.403" gradientUnits="userSpaceOnUse">
<stop stop-color="#F2F2F2"/>
<stop offset="1" stop-color="#EFEFEF"/>
</linearGradient>
<linearGradient id="paint1_linear_182_2166" x1="100.305" y1="24.5918" x2="100.305" y2="132.379" gradientUnits="userSpaceOnUse">
<stop stop-color="white"/>
<stop offset="0.7188" stop-color="#FAFAFA"/>
</linearGradient>
</defs>
</svg>
